<?xml version="1.0" encoding="UTF-8"?><svg id="Capa_2" xmlns="http://www.w3.org/2000/svg" viewBox="0 0 712.18 714.52"><g id="Capa_2-2"><path d="M356.02,0C173.5,0,22.95,136.88,1.43,313.58c-.11,.75-.41,2.24-.63,5.05-.14,3.86,7.06,6.35,7.06,6.35,0,0,22.82,8.87,35.89,14.23,13.91,5.74,49.09,11.01,67.76,12.47,18.68,1.45,58-4.53,68.27-6.39,14.53-2.43,37.52-10.95,48.21-14.94,20.24-9.11,26.1-2.23,26.1-2.23l32.01,26.89,.07,.05c.48,.26,4.56,2.71,1.5,8.8-3.25,6.45-53.94,22.26-76.23,27.49-36.86,9.24-58.15,10.28-80.36,10.03-73.31,2.44-92.59-8.9-109.54-14.85-11.37-4-17.17-4.28-19.76-4.04-1.01,.1-1.76,.96-1.76,1.97v2.64c15.16,183.36,168.77,327.42,356.02,327.42s335.68-139.26,355.13-318.2t0-.01h0c-.66-4.11-4.47-6.25-4.47-6.25,0,0-22.82-8.87-35.89-14.23-15.13-6.05-47.33-10.65-67.77-12.47-18.67-1.46-57.98,4.52-68.27,6.38-14.52,2.43-37.51,10.96-48.2,14.95-20.24,9.1-26.1,2.23-26.1,2.23l-32.01-26.89s-.04-.03-.05-.04c-.38-.2-4.62-2.63-1.51-8.81,3.25-6.47,53.94-22.26,76.23-27.49,36.84-9.25,58.15-10.3,80.34-10.04,73.32-2.44,92.6,8.91,109.55,14.86,16.95,5.94,18.67,2.07,18.67,2.07l.5-1.53h0C697.8,144.92,543.84,0,356.02,0Zm-4.26,439.09c-.6,.88-1.43,1.53-2.39,1.93-5.63,2.32-28.62,11.62-59.99,21.62-36.25,11.56-59.28,8.26-83.51,6.13-22.4-1.96-51.33-20.35-55.27-23.53-6.91-5.59-14.9-15.65-14.06-14.97-1.03-1.11-3.07-4.16,.38-5.92,5.96-1.11,51.4-7.46,57.79-8.49,.46-.08,.9-.09,1.37-.04,3.42,.33,19.41,1.82,41.25,3.16,24.73,1.51,63.19-14.86,74.83-19.54,11.65-4.68,15.39,1.73,15.39,1.73,0,0,23.46,27.85,25.47,31.19,1.34,2.23-.13,5.07-1.25,6.71Zm133.82-20.13c42.13,2.57,52.7-24.31,57.46-29.21,3.6-3.7,8.63-5.68,13.78-5.83l36.6-1.11h.15c.95,0,1.87,.32,2.62,.9,1.09,.85,1.74,2.2,1.64,3.59-2.47,36.46-38.05,60.53-48.35,68.74-22.08,12.92-41.22,15.59-68.64,14.02-88.06-2.49-166.96-124.84-178.75-134.32-.93-.74-1.85-1.48-2.7-2.3-20.21-19.41-89.27-69.79-131.28-4.66-.79,1.21-2.14,1.93-3.58,1.93-7.81,0-32.58,2.11-43.98,2.11-4.14,1.07-7.55-4.95-6.67-7.71,20.49-65.01,63.25-77.88,98.58-80.59,56.04-5.57,117.16,37.62,143.29,71.97,25.49,33.52,62.4,68.41,64.16,70.06,.04,.04,.09,.08,.14,.13,29.54,24.5,47.6,30.84,65.5,32.26Zm92.56-126.25c-5.94,1.09-55.42,8.6-59.15,8.51-3.42-.33-19.41-1.82-41.26-3.16-24.73-1.51-63.18,14.86-74.82,19.55-11.66,4.67-15.39-1.74-15.39-1.74,0,0-23.46-27.85-25.47-31.19-1.34-2.23,.11-5.05,1.25-6.71,.6-.87,1.43-1.53,2.39-1.93,5.63-2.32,28.62-11.62,59.99-21.62,36.25-11.56,59.28-8.26,83.51-6.13,22.4,1.96,51.31,20.35,55.26,23.53,6.92,5.59,14.9,15.65,14.08,14.97,1.02,1.12,3.07,4.16-.39,5.93Z"/></g></svg>