<svg width="713" height="715" viewBox="0 0 713 715" fill="none" xmlns="http://www.w3.org/2000/svg">
<g clip-path="url(#clip0_62_2)">
<path d="M356.02 0C173.5 0 22.95 136.88 1.43002 313.58C1.32002 314.33 1.02002 315.82 0.80002 318.63C0.66002 322.49 7.86002 324.98 7.86002 324.98C7.86002 324.98 30.68 333.85 43.75 339.21C57.66 344.95 92.84 350.22 111.51 351.68C130.19 353.13 169.51 347.15 179.78 345.29C194.31 342.86 217.3 334.34 227.99 330.35C248.23 321.24 254.09 328.12 254.09 328.12L286.1 355.01L286.17 355.06C286.65 355.32 290.73 357.77 287.67 363.86C284.42 370.31 233.73 386.12 211.44 391.35C174.58 400.59 153.29 401.63 131.08 401.38C57.77 403.82 38.49 392.48 21.54 386.53C10.17 382.53 4.37002 382.25 1.78002 382.49C0.77002 382.59 0.0200195 383.45 0.0200195 384.46V387.1C15.18 570.46 168.79 714.52 356.04 714.52C543.29 714.52 691.72 575.26 711.17 396.32C711.17 396.32 711.17 396.317 711.17 396.31C710.51 392.2 706.7 390.06 706.7 390.06C706.7 390.06 683.88 381.19 670.81 375.83C655.68 369.78 623.48 365.18 603.04 363.36C584.37 361.9 545.06 367.88 534.77 369.74C520.25 372.17 497.26 380.7 486.57 384.69C466.33 393.79 460.47 386.92 460.47 386.92L428.46 360.03C428.46 360.03 428.42 360 428.41 359.99C428.03 359.79 423.79 357.36 426.9 351.18C430.15 344.71 480.84 328.92 503.13 323.69C539.97 314.44 561.28 313.39 583.47 313.65C656.79 311.21 676.07 322.56 693.02 328.51C709.97 334.45 711.69 330.58 711.69 330.58L712.19 329.05C697.8 144.92 543.84 0 356.02 0ZM351.76 439.09C351.16 439.97 350.33 440.62 349.37 441.02C343.74 443.34 320.75 452.64 289.38 462.64C253.13 474.2 230.1 470.9 205.87 468.77C183.47 466.81 154.54 448.42 150.6 445.24C143.69 439.65 135.7 429.59 136.54 430.27C135.51 429.16 133.47 426.11 136.92 424.35C142.88 423.24 188.32 416.89 194.71 415.86C195.17 415.78 195.61 415.77 196.08 415.82C199.5 416.15 215.49 417.64 237.33 418.98C262.06 420.49 300.52 404.12 312.16 399.44C323.81 394.76 327.55 401.17 327.55 401.17C327.55 401.17 351.01 429.02 353.02 432.36C354.36 434.59 352.89 437.43 351.77 439.07L351.76 439.09ZM485.58 418.96C527.71 421.53 538.28 394.65 543.04 389.75C546.64 386.05 551.67 384.07 556.82 383.92L593.42 382.81H593.57C594.52 382.81 595.44 383.13 596.19 383.71C597.28 384.56 597.93 385.91 597.83 387.3C595.36 423.76 559.78 447.83 549.48 456.04C527.4 468.96 508.26 471.63 480.84 470.06C392.78 467.57 313.88 345.22 302.09 335.74C301.16 335 300.24 334.26 299.39 333.44C279.18 314.03 210.12 263.65 168.11 328.78C167.32 329.99 165.97 330.71 164.53 330.71C156.72 330.71 131.95 332.82 120.55 332.82C116.41 333.89 113 327.87 113.88 325.11C134.37 260.1 177.13 247.23 212.46 244.52C268.5 238.95 329.62 282.14 355.75 316.49C381.24 350.01 418.15 384.9 419.91 386.55C419.95 386.59 420 386.63 420.05 386.68C449.59 411.18 467.65 417.52 485.55 418.94L485.58 418.96ZM578.14 292.71C572.2 293.8 522.72 301.31 518.99 301.22C515.57 300.89 499.58 299.4 477.73 298.06C453 296.55 414.55 312.92 402.91 317.61C391.25 322.28 387.52 315.87 387.52 315.87C387.52 315.87 364.06 288.02 362.05 284.68C360.71 282.45 362.16 279.63 363.3 277.97C363.9 277.1 364.73 276.44 365.69 276.04C371.32 273.72 394.31 264.42 425.68 254.42C461.93 242.86 484.96 246.16 509.19 248.29C531.59 250.25 560.5 268.64 564.45 271.82C571.37 277.41 579.35 287.47 578.53 286.79C579.55 287.91 581.6 290.95 578.14 292.72V292.71Z" fill="white"/>
</g>
<defs>
<clipPath id="clip0_62_2">
<rect width="712.18" height="714.52" fill="white"/>
</clipPath>
</defs>
</svg>
